<svg xmlns="http://www.w3.org/2000/svg" width="97" height="37" fill="none"><path fill="#00C4F0" d="M16.09 36.727c-3.272 0-6.09-.772-8.454-2.318-2.363-1.545-4.181-3.674-5.454-6.386-1.273-2.712-1.91-5.81-1.91-9.296 0-3.545.652-6.674 1.955-9.386 1.318-2.727 3.152-4.856 5.5-6.386C10.091 1.409 12.848.636 16 .636c2.454 0 4.667.455 6.636 1.364 1.97.91 3.584 2.182 4.841 3.818 1.258 1.637 2.038 3.546 2.341 5.728h-5.364c-.409-1.591-1.318-3-2.727-4.228-1.394-1.242-3.273-1.863-5.636-1.863-2.091 0-3.924.545-5.5 1.636-1.56 1.076-2.78 2.598-3.66 4.568-.863 1.955-1.295 4.25-1.295 6.886 0 2.697.425 5.046 1.273 7.046.864 2 2.076 3.553 3.637 4.659 1.575 1.106 3.424 1.66 5.545 1.66 1.394 0 2.659-.243 3.795-.728a7.829 7.829 0 0 0 2.887-2.091c.788-.91 1.348-2 1.681-3.273h5.364c-.303 2.06-1.053 3.917-2.25 5.568-1.182 1.637-2.75 2.94-4.704 3.91-1.94.954-4.197 1.431-6.773 1.431ZM62.387 8.91l-4.818 1.364a8.95 8.95 0 0 0-1.34-2.341c-.577-.773-1.364-1.41-2.364-1.91-1-.5-2.28-.75-3.841-.75-2.137 0-3.917.493-5.341 1.478-1.41.97-2.114 2.205-2.114 3.704 0 1.334.485 2.387 1.455 3.16.97.772 2.485 1.416 4.545 1.931l5.182 1.273c3.121.758 5.447 1.917 6.977 3.477 1.53 1.546 2.296 3.538 2.296 5.978 0 2-.576 3.788-1.728 5.363-1.136 1.576-2.727 2.819-4.772 3.728-2.046.909-4.425 1.363-7.137 1.363-3.56 0-6.507-.772-8.84-2.318-2.334-1.545-3.811-3.803-4.432-6.773l5.09-1.272c.485 1.878 1.402 3.287 2.75 4.227C45.319 31.53 47.1 32 49.296 32c2.5 0 4.485-.53 5.955-1.59 1.485-1.077 2.227-2.364 2.227-3.864 0-1.213-.424-2.228-1.272-3.046-.849-.833-2.152-1.454-3.91-1.864l-5.818-1.363c-3.197-.758-5.545-1.932-7.045-3.523-1.485-1.606-2.227-3.614-2.227-6.023 0-1.97.553-3.712 1.659-5.227 1.12-1.515 2.644-2.705 4.568-3.568 1.94-.864 4.136-1.296 6.59-1.296 3.455 0 6.167.758 8.137 2.273 1.985 1.515 3.394 3.515 4.227 6Zm33.438 0-4.818 1.364a8.95 8.95 0 0 0-1.341-2.341c-.576-.773-1.364-1.41-2.364-1.91-1-.5-2.28-.75-3.84-.75-2.137 0-3.917.493-5.342 1.478-1.409.97-2.113 2.205-2.113 3.704 0 1.334.484 2.387 1.454 3.16.97.772 2.485 1.416 4.546 1.931l5.181 1.273c3.122.758 5.448 1.917 6.978 3.477 1.53 1.546 2.295 3.538 2.295 5.978 0 2-.575 3.788-1.727 5.363-1.136 1.576-2.727 2.819-4.773 3.728-2.045.909-4.424 1.363-7.136 1.363-3.56 0-6.508-.772-8.841-2.318-2.333-1.545-3.81-3.803-4.432-6.773l5.091-1.272c.485 1.878 1.402 3.287 2.75 4.227 1.364.94 3.144 1.409 5.341 1.409 2.5 0 4.485-.53 5.954-1.59 1.485-1.077 2.228-2.364 2.228-3.864 0-1.213-.425-2.228-1.273-3.046-.848-.833-2.151-1.454-3.909-1.864l-5.818-1.363c-3.197-.758-5.546-1.932-7.046-3.523-1.484-1.606-2.227-3.614-2.227-6.023 0-1.97.553-3.712 1.66-5.227 1.12-1.515 2.643-2.705 4.567-3.568C78.81 1.068 81.006.636 83.46.636c3.455 0 6.167.758 8.137 2.273 1.984 1.515 3.394 3.515 4.227 6Z"/></svg>