<svg xmlns="http://www.w3.org/2000/svg" width="121" height="76" fill="none"><path fill="#00C4F0" d="M32.648 1.273h8.806V53.26c0 4.64-.852 8.582-2.556 11.826-1.705 3.243-4.108 5.705-7.21 7.386-3.1 1.68-6.758 2.521-10.972 2.521-3.977 0-7.517-.722-10.618-2.166-3.101-1.468-5.54-3.551-7.315-6.25C1.007 63.88.119 60.671.119 56.955h8.665c0 2.06.51 3.858 1.527 5.397 1.042 1.515 2.462 2.7 4.261 3.551 1.8.853 3.848 1.279 6.144 1.279 2.533 0 4.687-.533 6.463-1.598 1.776-1.066 3.125-2.628 4.048-4.688.947-2.083 1.42-4.628 1.42-7.635V1.273Zm78.728 18.181c-.426-3.598-2.154-6.392-5.184-8.38-3.031-1.989-6.747-2.983-11.15-2.983-3.22 0-6.038.52-8.453 1.562-2.39 1.042-4.26 2.474-5.61 4.297-1.326 1.823-1.989 3.895-1.989 6.215 0 1.941.462 3.61 1.385 5.007a12.288 12.288 0 0 0 3.622 3.444c1.468.9 3.007 1.646 4.617 2.238 1.61.568 3.09 1.03 4.439 1.385l7.386 1.988c1.894.497 4.001 1.184 6.321 2.06a29.189 29.189 0 0 1 6.712 3.587c2.154 1.491 3.93 3.409 5.326 5.752 1.397 2.344 2.095 5.22 2.095 8.63 0 3.93-1.029 7.48-3.089 10.653-2.036 3.172-5.019 5.694-8.949 7.564-3.906 1.87-8.653 2.805-14.24 2.805-5.208 0-9.718-.84-13.53-2.52-3.788-1.682-6.77-4.025-8.949-7.032-2.154-3.007-3.373-6.499-3.657-10.476h9.09c.237 2.746 1.16 5.019 2.77 6.818 1.634 1.776 3.694 3.102 6.18 3.978 2.509.852 5.208 1.278 8.096 1.278 3.362 0 6.38-.545 9.055-1.634 2.676-1.112 4.794-2.651 6.357-4.616 1.562-1.989 2.344-4.309 2.344-6.96 0-2.415-.675-4.38-2.024-5.895-1.35-1.515-3.125-2.747-5.327-3.693a55.979 55.979 0 0 0-7.138-2.486l-8.949-2.557c-5.682-1.634-10.18-3.965-13.494-6.996-3.314-3.03-4.972-6.996-4.972-11.896 0-4.072 1.101-7.623 3.303-10.654 2.225-3.053 5.208-5.42 8.949-7.102C86.483 1.131 90.685.278 95.325.278c4.688 0 8.854.84 12.5 2.522 3.646 1.657 6.534 3.93 8.665 6.818 2.154 2.888 3.291 6.167 3.409 9.836h-8.523Z"/></svg>