<svg xmlns="http://www.w3.org/2000/svg" width="187" height="49" fill="none"><path fill="#00C4F0" d="M28.09 13.09c-.272-2.302-1.378-4.09-3.317-5.363-1.94-1.272-4.319-1.909-7.137-1.909-2.06 0-3.863.334-5.409 1-1.53.667-2.727 1.584-3.59 2.75-.85 1.167-1.273 2.493-1.273 3.978 0 1.242.295 2.31.886 3.204a7.864 7.864 0 0 0 2.318 2.204c.94.576 1.924 1.054 2.955 1.432 1.03.364 1.977.66 2.84.887l4.728 1.273a41.2 41.2 0 0 1 4.045 1.318c1.5.56 2.932 1.325 4.296 2.295 1.379.955 2.515 2.182 3.409 3.682.894 1.5 1.34 3.34 1.34 5.523 0 2.515-.658 4.788-1.976 6.818-1.303 2.03-3.213 3.644-5.728 4.84-2.5 1.198-5.538 1.796-9.113 1.796-3.334 0-6.22-.538-8.66-1.613-2.424-1.076-4.333-2.576-5.727-4.5C1.598 40.78.818 38.544.637 36h5.818c.151 1.758.742 3.212 1.772 4.364 1.046 1.136 2.364 1.985 3.955 2.545 1.606.546 3.333.818 5.182.818 2.151 0 4.083-.348 5.795-1.045 1.712-.712 3.068-1.697 4.068-2.955 1-1.272 1.5-2.757 1.5-4.454 0-1.546-.431-2.803-1.295-3.773-.864-.97-2-1.758-3.41-2.364a35.81 35.81 0 0 0-4.567-1.59l-5.728-1.637c-3.636-1.045-6.515-2.538-8.636-4.477-2.121-1.94-3.182-4.477-3.182-7.614 0-2.606.705-4.879 2.114-6.818C5.447 5.045 7.356 3.53 9.75 2.455 12.16 1.364 14.848.818 17.818.818c3 0 5.667.538 8 1.614 2.333 1.06 4.182 2.515 5.546 4.363 1.378 1.849 2.106 3.947 2.181 6.296h-5.454ZM88.904 16h-5.636c-.333-1.621-.917-3.046-1.75-4.273a11.65 11.65 0 0 0-3-3.09 12.733 12.733 0 0 0-3.886-1.91 15.521 15.521 0 0 0-4.455-.636c-2.818 0-5.371.712-7.659 2.136-2.273 1.425-4.083 3.523-5.432 6.296-1.333 2.773-2 6.174-2 10.204s.667 7.432 2 10.205c1.349 2.773 3.16 4.871 5.432 6.295 2.288 1.425 4.841 2.137 7.66 2.137 1.545 0 3.03-.212 4.454-.637a13.037 13.037 0 0 0 3.886-1.886 11.974 11.974 0 0 0 3-3.114c.833-1.242 1.417-2.666 1.75-4.272h5.636c-.424 2.378-1.197 4.507-2.318 6.386a17.455 17.455 0 0 1-4.182 4.795 18.315 18.315 0 0 1-5.613 2.978c-2.06.681-4.265 1.022-6.614 1.022-3.97 0-7.5-.97-10.59-2.909-3.092-1.94-5.523-4.697-7.296-8.272-1.773-3.576-2.66-7.819-2.66-12.728s.887-9.151 2.66-12.727c1.773-3.576 4.204-6.333 7.295-8.273C62.676 1.787 66.206.818 70.176.818c2.349 0 4.553.341 6.614 1.023a18.05 18.05 0 0 1 5.613 3 17.143 17.143 0 0 1 4.182 4.773c1.121 1.863 1.894 3.992 2.318 6.386Zm42.563-2.91c-.273-2.302-1.379-4.09-3.318-5.363-1.94-1.272-4.318-1.909-7.137-1.909-2.06 0-3.863.334-5.409 1-1.53.667-2.727 1.584-3.591 2.75-.848 1.167-1.272 2.493-1.272 3.978 0 1.242.295 2.31.886 3.204a7.867 7.867 0 0 0 2.318 2.204c.94.576 1.924 1.054 2.955 1.432 1.03.364 1.977.66 2.841.887l4.727 1.273c1.212.318 2.561.757 4.045 1.318 1.5.56 2.932 1.325 4.296 2.295 1.379.955 2.515 2.182 3.409 3.682.894 1.5 1.341 3.34 1.341 5.523 0 2.515-.659 4.788-1.977 6.818-1.303 2.03-3.213 3.644-5.728 4.84-2.5 1.198-5.538 1.796-9.113 1.796-3.334 0-6.22-.538-8.659-1.613-2.425-1.076-4.334-2.576-5.728-4.5-1.379-1.925-2.159-4.16-2.341-6.705h5.819c.151 1.758.742 3.212 1.772 4.364 1.046 1.136 2.364 1.985 3.955 2.545 1.606.546 3.333.818 5.182.818 2.151 0 4.083-.348 5.795-1.045 1.712-.712 3.068-1.697 4.068-2.955 1-1.272 1.5-2.757 1.5-4.454 0-1.546-.432-2.803-1.295-3.773-.864-.97-2-1.758-3.409-2.364a35.822 35.822 0 0 0-4.568-1.59l-5.728-1.637c-3.636-1.045-6.515-2.538-8.636-4.477-2.121-1.94-3.182-4.477-3.182-7.614 0-2.606.705-4.879 2.114-6.818 1.424-1.955 3.333-3.47 5.727-4.545 2.409-1.091 5.098-1.637 8.068-1.637 3 0 5.667.538 8 1.614 2.334 1.06 4.182 2.515 5.546 4.363 1.378 1.849 2.106 3.947 2.181 6.296h-5.454Zm48.812 0c-.272-2.302-1.378-4.09-3.318-5.363-1.939-1.272-4.318-1.909-7.136-1.909-2.061 0-3.864.334-5.409 1-1.531.667-2.727 1.584-3.591 2.75-.849 1.167-1.273 2.493-1.273 3.978 0 1.242.296 2.31.887 3.204a7.855 7.855 0 0 0 2.318 2.204 16.597 16.597 0 0 0 2.954 1.432c1.031.364 1.978.66 2.841.887l4.727 1.273c1.213.318 2.561.757 4.046 1.318 1.5.56 2.932 1.325 4.295 2.295 1.379.955 2.515 2.182 3.409 3.682.894 1.5 1.341 3.34 1.341 5.523 0 2.515-.659 4.788-1.977 6.818-1.303 2.03-3.212 3.644-5.727 4.84-2.5 1.198-5.538 1.796-9.114 1.796-3.333 0-6.22-.538-8.659-1.613-2.424-1.076-4.333-2.576-5.727-4.5-1.379-1.925-2.159-4.16-2.341-6.705h5.818c.152 1.758.742 3.212 1.773 4.364 1.045 1.136 2.363 1.985 3.954 2.545 1.606.546 3.334.818 5.182.818 2.152 0 4.083-.348 5.796-1.045 1.712-.712 3.068-1.697 4.068-2.955 1-1.272 1.5-2.757 1.5-4.454 0-1.546-.432-2.803-1.296-3.773-.863-.97-2-1.758-3.409-2.364a35.822 35.822 0 0 0-4.568-1.59l-5.727-1.637c-3.637-1.045-6.515-2.538-8.637-4.477-2.121-1.94-3.181-4.477-3.181-7.614 0-2.606.704-4.879 2.113-6.818 1.424-1.955 3.334-3.47 5.728-4.545 2.409-1.091 5.098-1.637 8.068-1.637 3 0 5.666.538 8 1.614 2.333 1.06 4.182 2.515 5.545 4.363 1.379 1.849 2.106 3.947 2.182 6.296h-5.455Z"/></svg>